<svg id="visual" viewBox="0 0 1920 1080" width="1920" height="1080" xmlns="http://www.w3.org/2000/svg" xmlns:xlink="http://www.w3.org/1999/xlink" version="1.1"><rect x="0" y="0" width="1920" height="1080" fill="#300354"></rect><path d="M1161 1080L1519 1080L1519 900L1418 900L1418 720L1363 720L1363 540L1301 540L1301 360L1482 360L1482 180L1356 180L1356 0L1920 0L1920 180L1920 180L1920 360L1920 360L1920 540L1920 540L1920 720L1920 720L1920 900L1920 900L1920 1080L1920 1080Z" fill="#560090"></path><path d="M1343 1080L1710 1080L1710 900L1680 900L1680 720L1537 720L1537 540L1637 540L1637 360L1341 360L1341 180L1652 180L1652 0L1920 0L1920 180L1920 180L1920 360L1920 360L1920 540L1920 540L1920 720L1920 720L1920 900L1920 900L1920 1080L1920 1080Z" fill="#7700c6"></path><path d="M1688 1080L1677 1080L1677 900L1585 900L1585 720L1521 720L1521 540L1801 540L1801 360L1789 360L1789 180L1625 180L1625 0L1920 0L1920 180L1920 180L1920 360L1920 360L1920 540L1920 540L1920 720L1920 720L1920 900L1920 900L1920 1080L1920 1080Z" fill="#9900ff"></path></svg>