<svg id="visual" viewBox="0 0 1920 1080" width="1920" height="1080" xmlns="http://www.w3.org/2000/svg" xmlns:xlink="http://www.w3.org/1999/xlink" version="1.1"><rect width="1920" height="1080" fill="#001122"></rect><g><g transform="translate(382 635)"><path d="M0 -140L121.2 -70L121.2 70L0 140L-121.2 70L-121.2 -70Z" fill="#0066FF"></path></g><g transform="translate(1564 874)"><path d="M0 -78L67.5 -39L67.5 39L0 78L-67.5 39L-67.5 -39Z" fill="#0066FF"></path></g><g transform="translate(1026 517)"><path d="M0 -50L43.3 -25L43.3 25L0 50L-43.3 25L-43.3 -25Z" fill="#0066FF"></path></g><g transform="translate(889 40)"><path d="M0 -124L107.4 -62L107.4 62L0 124L-107.4 62L-107.4 -62Z" fill="#0066FF"></path></g><g transform="translate(412 35)"><path d="M0 -44L38.1 -22L38.1 22L0 44L-38.1 22L-38.1 -22Z" fill="#0066FF"></path></g><g transform="translate(118 132)"><path d="M0 -45L39 -22.5L39 22.5L0 45L-39 22.5L-39 -22.5Z" fill="#0066FF"></path></g><g transform="translate(653 786)"><path d="M0 -73L63.2 -36.5L63.2 36.5L0 73L-63.2 36.5L-63.2 -36.5Z" fill="#0066FF"></path></g><g transform="translate(9 630)"><path d="M0 -133L115.2 -66.5L115.2 66.5L0 133L-115.2 66.5L-115.2 -66.5Z" fill="#0066FF"></path></g><g transform="translate(1431 363)"><path d="M0 -106L91.8 -53L91.8 53L0 106L-91.8 53L-91.8 -53Z" fill="#0066FF"></path></g><g transform="translate(1456 28)"><path d="M0 -71L61.5 -35.5L61.5 35.5L0 71L-61.5 35.5L-61.5 -35.5Z" fill="#0066FF"></path></g><g transform="translate(1887 481)"><path d="M0 -71L61.5 -35.5L61.5 35.5L0 71L-61.5 35.5L-61.5 -35.5Z" fill="#0066FF"></path></g><g transform="translate(649 439)"><path d="M0 -59L51.1 -29.5L51.1 29.5L0 59L-51.1 29.5L-51.1 -29.5Z" fill="#0066FF"></path></g><g transform="translate(949 835)"><path d="M0 -124L107.4 -62L107.4 62L0 124L-107.4 62L-107.4 -62Z" fill="#0066FF"></path></g><g transform="translate(1304 1012)"><path d="M0 -65L56.3 -32.5L56.3 32.5L0 65L-56.3 32.5L-56.3 -32.5Z" fill="#0066FF"></path></g><g transform="translate(1850 1018)"><path d="M0 -35L30.3 -17.5L30.3 17.5L0 35L-30.3 17.5L-30.3 -17.5Z" fill="#0066FF"></path></g><g transform="translate(1853 39)"><path d="M0 -107L92.7 -53.5L92.7 53.5L0 107L-92.7 53.5L-92.7 -53.5Z" fill="#0066FF"></path></g><g transform="translate(244 958)"><path d="M0 -72L62.4 -36L62.4 36L0 72L-62.4 36L-62.4 -36Z" fill="#0066FF"></path></g><g transform="translate(1339 660)"><path d="M0 -121L104.8 -60.5L104.8 60.5L0 121L-104.8 60.5L-104.8 -60.5Z" fill="#0066FF"></path></g><g transform="translate(709 1068)"><path d="M0 -87L75.3 -43.5L75.3 43.5L0 87L-75.3 43.5L-75.3 -43.5Z" fill="#0066FF"></path></g><g transform="translate(375 345)"><path d="M0 -67L58 -33.5L58 33.5L0 67L-58 33.5L-58 -33.5Z" fill="#0066FF"></path></g><g transform="translate(1186 174)"><path d="M0 -36L31.2 -18L31.2 18L0 36L-31.2 18L-31.2 -18Z" fill="#0066FF"></path></g></g></svg>